<svg width="185" height="147" viewBox="0 0 185 147" fill="none" xmlns="http://www.w3.org/2000/svg">
<path d="M2.96839 74.1778C7.96836 88.6778 46.4685 124.178 56.9684 133.178C67.4683 142.178 82.7658 148.479 101.968 145.678C121.171 142.877 140.569 122.221 142.968 108.178C145.368 94.134 142.935 78.0251 133.968 63.6779C126.468 51.6779 82.4683 9.17799 75.9684 6.17789C69.4685 3.17778 56.9685 -1.82206 43.9684 0.67792C30.9684 3.1779 28.4686 5.17777 18.4686 11.6778C8.46858 18.1778 3.46852 33.1778 1.96856 38.6778C0.468589 44.1778 -2.03158 59.6777 2.96839 74.1778Z" fill="#4D5097"/>
<path d="M181.338 74.1778C176.338 88.6778 131 130 127.338 133.178C123.676 136.356 116 142.4 105.5 145C98.7254 146.678 90.6472 146.89 82.3378 145.678C63.1351 142.877 43.7377 122.221 41.3377 108.178C38.9378 94.134 41.3708 78.0251 50.3378 63.6779C57.8378 51.6779 101.838 9.17799 108.338 6.17789C114.838 3.17778 127.338 -1.82206 140.338 0.67792C153.338 3.1779 155.838 5.17777 165.838 11.6778C175.838 18.1778 180.838 33.1778 182.338 38.6778C183.838 44.1778 186.338 59.6777 181.338 74.1778Z" fill="#29478B"/>
<path d="M181.338 74.1778C176.338 88.6778 130.662 129.822 127 133L134.5 125L139.5 118L143 109.5L144 101V92L142.5 83L138.5 72L133 62L118 44.5L92.183 19.6554C99.8946 12.5186 106.181 7.17343 108.338 6.17789C114.838 3.17778 127.338 -1.82206 140.338 0.67792C153.338 3.1779 155.838 5.17777 165.838 11.6778C175.838 18.1778 180.838 33.1778 182.338 38.6778C183.838 44.1778 186.338 59.6777 181.338 74.1778Z" fill="#00BFA8"/>
</svg>
